<svg xmlns="http://www.w3.org/2000/svg" width="24" height="24" viewBox="0 0 24 24" id="icon"><path stroke="currentColor" stroke-width="0.5" d="M4.698 21.119c-.152-.33-.355-.788-.457-1.016l-.152-.432-.508.559-.508.559-.051-1.067c-.076-1.524.05-3.1.305-4.217.584-2.489 2.413-4.75 4.775-5.943l.533-.254-.127-.381c-.076-.204-.152-.635-.177-.915L8.28 7.48l-.534-.051c-.812-.076-1.244-.305-1.524-.89-.152-.304-.152-.355-.101-1.168.05-1.066.127-1.295.457-1.65.406-.458.686-.534 1.702-.483.737.05.889.076 1.22.228.202.102.38.204.406.204.025 0 .254-.28.533-.66l.483-.687.304.178c.178.102.381.229.483.28l.178.101-.153.381a4.612 4.612 0 0 0-.203.737l-.05.355.431.051c1.55.153 2.718 1.092 3.15 2.515.127.457.127 1.346 0 1.778-.127.406-.127.432-.026.432.178 0 1.372.584 1.855.889.94.61 2.032 1.676 2.641 2.59 1.143 1.702 1.626 3.557 1.423 5.589-.102 1.219-.33 2.184-.737 3.124l-.152.356h-1.27l.305-.61c.33-.66.584-1.575.71-2.388.077-.558.102-2.082.026-2.362l-.05-.178-.33.356c-.814.889-2.008 1.143-3.608.711-1.371-.355-1.93-.432-3.226-.432-.99 0-1.32.026-1.854.153-1.473.33-2.515.813-3.962 1.854-.534.381-.966.686-.991.686-.025 0 .05-.254.152-.584.102-.33.28-.864.381-1.22l.204-.635-.229.229c-.127.127-.483.483-.787.813l-.534.584.127.483c.153.635.508 1.422.89 2.006.152.254.279.457.279.483 0 .025-.305.025-.66.025h-.661l-.28-.533zm2.236-6.147c1.219-1.296 2.21-2.337 2.235-2.337.025.025-.102.406-.229.838-.838 2.642-1.016 3.15-.99 3.175 0 0 .304-.101.635-.228 2.159-.94 4.673-1.067 7.34-.356 1.194.305 1.652.305 2.236 0 .33-.178.457-.28.61-.533.279-.432.304-1.042.126-1.6-.431-1.22-2.108-2.795-3.683-3.48-.813-.356-.863-.356-1.041-.178l-.153.152.66.813c.356.432.737.914.788 1.041.153.305.178.788.026 1.093-.204.431-.813.736-1.296.635-.203-.051-.28-.026-.482.127-.56.406-1.169.304-1.677-.305-.406-.457-.508-.686-.533-1.143a1.69 1.69 0 0 0-.127-.61c-.076-.152-.102-.33-.102-.559l.026-.355-.33-.076c-.458-.127-.991-.381-1.296-.61-.152-.102-.28-.203-.33-.203-.051 0-.381.152-.737.33-2.464 1.27-4.064 3.632-4.318 6.3-.025.253-.05.584-.076.71l-.026.23.28-.28c.127-.127 1.244-1.296 2.464-2.591zm6.578-1.88c.229-.178.432-.33.483-.33.025 0 .102.076.178.178.127.203.355.203.457.025.076-.127.076-.152-1.422-1.981-.89-1.092-1.067-1.27-1.194-1.27-.305.025-.229.254.254.838l.457.559-.254.203c-.28.254-.305.305-.127.457.127.127.152.102.406-.076l.28-.178.178.153a.426.426 0 0 1 .152.228c0 .051-.203.229-.432.432-.228.178-.406.381-.406.432 0 .076.127.28.355.559.077.152.204.101.635-.229zm-2.616-3.607c.153-.457.66-.812 1.169-.812.279 0 .685.228.965.533l.254.305.228-.28c.635-.71.712-1.701.204-2.565-.381-.635-1.093-1.016-2.083-1.118-.534-.05-.66-.101-.94-.38l-.203-.204-.102.152c-.203.305-.635 1.296-.762 1.677-.178.584-.101 1.499.127 1.956.229.432.838 1.016 1.016.94.026.025.076-.077.127-.204zm-2.26-3.454c.05-.127.177-.457.304-.711.127-.254.229-.508.229-.585 0-.228-.254-.33-.94-.38-.61-.051-.66-.026-.787.101a.536.536 0 0 0-.153.406c0 .153-.025.432-.05.66-.051.534.025.636.558.712.788.05.762.05.838-.203zm-.788-.61c0-.432.05-.482.406-.482h.33v.71h-.71v-.228h-.026zm1.6 14.809c-.152-.153-.203-.254-.203-.508 0-.483.28-.762.737-.762.432 0 .736.305.736.736 0 .458-.28.712-.762.737-.254 0-.355-.05-.508-.203zm4.903.076a.744.744 0 0 1 .457-1.346c.457 0 .711.28.736.762 0 .28-.025.355-.203.508-.178.152-.254.203-.508.203-.228 0-.38-.05-.482-.127z"/></svg>
