<svg version="1" xmlns="http://www.w3.org/2000/svg" width="933.333" height="933.333" viewBox="0 0 700.000000 700.000000"><path d="M328.5.6c-30.5 3-42.1 4.8-63.1 9.9-47.6 11.7-94.4 34.8-133.9 66.1-14.1 11.3-43.6 40.8-54.9 54.9-40.9 51.6-65.6 110.8-74.2 178-2.5 19.6-2.5 61.4 0 81 8.6 67.2 33.3 126.4 74.2 178 11.3 14.1 40.8 43.6 54.9 54.9 51.6 40.9 110.8 65.6 178 74.2 19.6 2.5 61.4 2.5 81 0 67.2-8.6 126.4-33.3 178-74.2 14.1-11.3 43.6-40.8 54.9-54.9 40.9-51.6 65.6-110.8 74.2-178 2.5-19.6 2.5-61.4 0-81-8.6-67.2-33.3-126.4-74.2-178-11.3-14.1-40.8-43.6-54.9-54.9C517 35.8 457.6 10.9 391 2.5 379.3 1 337.4-.3 328.5.6zM214.2 213.9c18.3 3.2 36.3 10.2 47.8 18.6 8.6 6.3 17 16.3 21.1 25 4.4 9.4 5.9 16.1 5.9 25.4 0 5.3-.4 7.4-1.9 9.2-1.9 2.4-2.1 2.4-24.8 2.7-16.9.2-23.4-.1-25.3-1-1.5-.8-3.7-3.8-5.5-7.5-6.1-12.6-14.7-19.4-28.3-22.2-12.4-2.6-28.1-.7-37 4.5-9.3 5.5-12.3 17.3-6.4 25.3 5.3 7.2 20 14.7 40.2 20.5 29.5 8.5 49.4 15.2 59 19.9 8.8 4.3 11.8 6.4 18.6 13.2 8.8 8.7 13 15.9 16.1 27.5 2.3 8.9 2.3 29.9-.1 39.5-9.4 37.6-45.1 59.4-97.3 59.5-37.4 0-69.1-12.9-89-36.4-9.5-11.1-15.3-27.2-15.4-42.6-.1-12.5-1.4-12 29-12 13.5 0 25.6.3 26.9.6 2.8.8 4.7 4.3 5.7 10.4 1.5 9.1 7.8 17.5 16.5 22 10.8 5.5 35.3 7.1 48.1 3.1 11.3-3.6 16.9-10.9 16.9-22.3 0-13.8-6.9-18.2-41.5-26.8-45.3-11.3-70.9-23.2-84.5-39.6-16.8-20.1-18.7-55.1-4.3-78.8 18.1-29.7 63.9-45.5 109.5-37.7zm185.5 5.7c1.8 1.4 12.3 19.2 30.8 52.4 15.4 27.6 28.4 50.2 28.9 50.2s13-21.5 27.7-47.9c14.7-26.3 27.7-49.2 28.7-50.9 3.8-5.9 6.4-6.4 32.2-6.4h23.2l2.9 2.9 2.9 2.9v119.1c0 72.9-.4 119.9-1 121.5-1.8 4.7-3.8 5.1-28.1 5.1-23.4 0-26.7-.5-28.6-4.4-.4-.9-.9-31.7-1.1-68.5l-.3-66.9-19.4 33.8c-10.6 18.6-20.7 35.2-22.4 36.9l-3.1 3.1h-27.2l-3.1-3.5c-1.8-1.9-11.8-18.4-22.2-36.5l-19-33-.5 66.6c-.5 63.7-.6 66.8-2.4 68.8-1 1.1-3.5 2.5-5.5 3.1-4.5 1.2-39.2 1.3-44.6 0-8.2-1.9-7.5 9.6-7.5-125.2 0-82.9.3-120.5 1.1-121.9.6-1.1 2-2.4 3.2-2.9 1.2-.5 13.3-.8 26.9-.7 23.3.2 24.8.3 27.5 2.3z"/></svg>