<svg version="1" xmlns="http://www.w3.org/2000/svg" width="933.333" height="933.333" viewBox="0 0 700.000000 700.000000"><path d="M332.7 42.6c-.1.1-3.7.5-7.9.8-7.7.7-11.7 1.1-19.3 2.2-7.4 1-10 1.4-19.5 3.5-5.2 1.1-10.3 2.2-11.3 2.4-7.7 1.6-28.6 8.6-41.8 14-15.5 6.3-43.2 20.8-47.6 24.7-1.1 1-2.3 1.8-2.6 1.8-.4 0-2.5 1.2-4.6 2.7-2.1 1.6-4.9 3.5-6.1 4.3-2.1 1.4-14.8 11.2-19.3 14.9-1.1.9-4.2 3.6-7 6.1-59.9 53.5-96.6 127.7-102.4 207-1.2 17.1-.6 48.9 1.2 59 .2 1.4.6 4.5.9 7 .3 2.5.8 5.5 1 6.6.2 1.2.7 3.8 1 5.7 4.1 25.9 15.9 60.3 29.6 86.4 8.4 16.1 23.9 40.1 30.9 48 .9 1 3.6 4.3 6.1 7.3 21.1 25.9 50.7 50.9 81 68.7 31.1 18.2 68.6 31.9 102.5 37.4 3.3.5 8 1.2 10.5 1.5 2.5.3 5.5.7 6.7.9 8.2 1.8 44 2.4 59.3 1.2 67.8-5.6 129.2-31.8 180.9-77.2 19.7-17.3 42.3-44.4 57.3-68.7 15.6-25.3 31.1-62.2 36.4-86.7.2-1.2 1.1-5.1 1.9-8.5.8-3.3 1.7-7.7 2-9.6.3-1.9.7-4.2 1-5 .2-.8.6-4 1-7.1.3-3.1.8-6.7 1-8 2.3-11.5 2.3-58.8.1-71.9-.3-1.4-.7-4.8-1.1-7.5-.3-2.8-1.7-10.6-3.1-17.4-13.3-66-48.6-127-99-170.6-13.9-12.1-21-17.4-36.9-27.8-34.7-22.6-83.4-40.7-122-45.2-3.3-.4-6.8-.9-7.8-1.1-6.4-1.1-52.1-2.7-53-1.8z"/></svg>
