<svg version="1" xmlns="http://www.w3.org/2000/svg" width="933.333" height="933.333" viewBox="0 0 700.000000 700.000000"><path d="M329 .6c-1.9.2-8.7.9-15 1.5-64.7 6.1-129.4 32.6-182.5 74.6-14.1 11.1-43.7 40.7-54.8 54.8-41.3 52.1-66.2 112-74.4 178.5-2.4 20-2.4 60 0 80 8.2 66.5 33.1 126.4 74.4 178.5 11.1 14.1 40.7 43.7 54.8 54.8 52.1 41.3 112 66.2 178.5 74.4 20 2.4 60 2.4 80 0 66.5-8.2 126.4-33.1 178.5-74.4 14.1-11.1 43.7-40.7 54.8-54.8 41.3-52.1 66.2-112 74.4-178.5 2.4-20 2.4-60 0-80-8.2-66.5-33.1-126.4-74.4-178.5-11.1-14.1-40.7-43.7-54.8-54.8-51.8-41-112.3-66.3-177.5-74.2C378.4 1 336.8-.3 329 .6zM212 245c37.5 4.6 62.8 24.3 66.5 51.7l.7 5.3h-34l-1.1-4.4c-3.5-13.9-17.3-23.2-38.2-25.6-19.3-2.2-37.8 2.7-47.4 12.6-9.8 10-10 23.9-.6 33.4 8.1 8.1 16.6 11.3 56.6 20.8 26.4 6.4 41.9 13.6 53.1 24.7 23.2 22.9 17.8 60.5-11.3 79.5-14.7 9.7-29.7 13.8-53.4 14.7-25.1.9-41.3-1.9-58.4-10.2-19.1-9.2-31.9-26.1-34.1-45l-.7-5.5h17.7c17.6 0 17.6 0 17.6 2.2 0 3.7 5.5 14 9.6 18.1 8.7 8.6 22.9 13.1 41.4 13 18.2 0 32.5-4.4 41.8-12.8 12-10.8 12.4-28.5.9-37.9-8.1-6.5-17.1-9.7-51.4-18.1-31.3-7.7-44.9-13.6-57.1-25-19.5-18-18.8-48.9 1.5-68.8 7.1-7 11.5-10 20.7-14.2 16.7-7.8 39.3-11 59.6-8.5zm212.9 81.7c19.9 43.9 36.9 80.5 37.7 81.3 1.3 1.3 1.6 1.3 2.4.1.4-.8 17.2-37.4 37.2-81.2l36.3-79.8 21.3-.1H581v208h-33l-.2-75c-.2-44.8-.7-75.1-1.2-75.3-.5-.1-16.3 33.5-35.1 74.8l-34.1 75h-27.6l-34.1-75c-18.8-41.3-34.7-74.9-35.2-74.8-.7.2-1.1 26.5-1.3 75.3l-.2 75h-33V247h42.5l36.4 79.7z"/></svg>