<svg viewBox="0 0 140 140" xmlns="http://www.w3.org/2000/svg" fill-rule="evenodd" clip-rule="evenodd" stroke-linejoin="round" stroke-miterlimit="1.414"><g transform="matrix(.12141 0 0 .70949 -15.411 -206.209)"><path fill="none" d="M126.93 290.646H1280v197.326H126.93z"/><clipPath id="a"><path d="M126.93 290.646H1280v197.326H126.93z"/></clipPath><g clip-path="url(#a)"><path d="M301.986 460.092c-107.944-17.933-175.053-43.026-175.053-70.781 0-54.45 258.321-98.659 576.511-98.659 318.19 0 576.51 44.208 576.51 98.659 0 54.452-258.32 98.66-576.51 98.66-149.281 0-285.385-9.731-387.819-25.685 18.268-7.548 44.789-13.696 59.433-16.702 38.117 5.22 79.1 2.772 79.1 2.772l330.726-48.278s-43.842-.978-97.22-10.112c-54.327-8.971-64.803-17.288-64.803-17.288l-274.489 57.9s-20.969 6.524 13.343 13.048c-14.578 2.974-40.695 8.939-59.729 16.466zm322.777-55.448l-41.938 7.177c-2.858.49-7.619.49-11.432 0l-17.156-2.772c-2.858-.49-2.858-1.305 0-1.958l41.93-7.175c2.867-.49 7.627-.49 11.44 0l17.156 2.934c2.858.49 2.858 1.305 0 1.794zm37.17-51.702c-6.67 2.284-15.253 5.545-23.827 8.807-6.671 2.61-7.627 5.71-2.858 8.482 6.672 4.077 22.872 10.438 62.9 17.125 43.842 7.502 81.967 9.95 101.981 10.602 8.582.325 16.2.325 24.783 0 38.125-1.469 60.042-3.1 74.34-4.403-27.64-1.632-85.78-6.2-143.92-16.149-60.042-10.438-84.825-19.572-93.398-24.464zm42.887-11.09l-10.485.488c-9.53 1.63-22.872 5.22-22.872 5.22l1.91 1.467s9.53 11.907 94.355 26.423c77.198 13.211 152.493 16.31 152.493 16.31l9.53.163s24.782-2.936 28.588-3.588c3.813-.652 4.768-2.12 4.768-2.12s-72.437-2.12-159.165-17.126c-82.914-14.516-99.122-27.238-99.122-27.238zm261.145-.328c-66.713-11.417-173.463-12.07-246.847-1.794l1.91 1.632c0 .162 15.246 12.07 95.302 25.77 81.967 14.026 149.635 16.31 149.635 16.31l10.485.325c60.042-12.722 56.229-30.825-10.485-42.243z" fill="#d14949"/></g></g></svg>